<svg xmlns="http://www.w3.org/2000/svg" width="440" height="220" viewBox="0 0 110 55"><path fill="#8a715e" stroke="#f9f9f9" stroke-width=".25" d="M0 50.24h110V55H0z" transform="matrix(.9547 0 0 1.0001 3.84 -6.08)"/><text xml:space="preserve" x=".81" y="54.97" fill="#1a1a1a" stroke-width=".51" font-family="Monospace" font-size="4.09" font-weight="400" style="-inkscape-font-specification:Monospace" transform="matrix(.9772 0 0 .9772 3.84 -6.08)"><tspan x=".81" y="54.97">@7@</tspan></text><text xml:space="preserve" x="-3.1" y="55.35" fill="#1a1a1a" stroke-width=".51" font-family="Monospace" font-size="4.09" font-weight="400" style="-inkscape-font-specification:Monospace" transform="matrix(.9772 0 0 .9772 3.84 -6.08)"><tspan x="-3.1" y="55.35">8</tspan></text><path fill="#f4679d" stroke="#f9f9f9" stroke-width=".25" d="M0 45.3h110v4.76H0z" transform="matrix(.9547 0 0 1.0001 3.84 -6.08)"/><text xml:space="preserve" x=".81" y="49.92" fill="#1a1a1a" stroke-width=".51" font-family="Monospace" font-size="4.09" font-weight="400" style="-inkscape-font-specification:Monospace" transform="matrix(.9772 0 0 .9772 3.84 -6.08)"><tspan x=".81" y="49.92">@6@</tspan></text><text xml:space="preserve" x="-3.08" y="50.29" fill="#1a1a1a" stroke-width=".51" font-family="Monospace" font-size="4.09" font-weight="400" style="-inkscape-font-specification:Monospace" transform="matrix(.9772 0 0 .9772 3.84 -6.08)"><tspan x="-3.08" y="50.29">7</tspan></text><path fill="#cd9ef7" stroke="#f9f9f9" stroke-width=".25" d="M0 40.36h110v4.76H0z" transform="matrix(.9547 0 0 1.0001 3.84 -6.08)"/><text xml:space="preserve" x=".81" y="44.86" fill="#1a1a1a" stroke-width=".51" font-family="Monospace" font-size="4.09" font-weight="400" style="-inkscape-font-specification:Monospace" transform="matrix(.9772 0 0 .9772 3.84 -6.08)"><tspan x=".81" y="44.86">@5@</tspan></text><text xml:space="preserve" x="-3.1" y="45.21" fill="#1a1a1a" stroke-width=".51" font-family="Monospace" font-size="4.09" font-weight="400" style="-inkscape-font-specification:Monospace" transform="matrix(.9772 0 0 .9772 3.84 -6.08)"><tspan x="-3.1" y="45.21">6</tspan></text><path fill="#64baff" stroke="#f9f9f9" stroke-width=".25" d="M0 35.43h110v4.76H0z" transform="matrix(.9547 0 0 1.0001 3.84 -6.08)"/><text xml:space="preserve" x=".81" y="39.81" fill="#1a1a1a" stroke-width=".51" font-family="Monospace" font-size="4.09" font-weight="400" style="-inkscape-font-specification:Monospace" transform="matrix(.9772 0 0 .9772 3.84 -6.08)"><tspan x=".81" y="39.81">@4@</tspan></text><text xml:space="preserve" x="-3.07" y="40.16" fill="#1a1a1a" stroke-width=".51" font-family="Monospace" font-size="4.09" font-weight="400" style="-inkscape-font-specification:Monospace" transform="matrix(.9772 0 0 .9772 3.84 -6.08)"><tspan x="-3.07" y="40.16">5</tspan></text><path fill="#9bdb4d" stroke="#f9f9f9" stroke-width=".25" d="M0 30.49h110v4.76H0z" transform="matrix(.9547 0 0 1.0001 3.84 -6.08)"/><text xml:space="preserve" x=".81" y="34.75" fill="#1a1a1a" stroke-width=".51" font-family="Monospace" font-size="4.09" font-weight="400" style="-inkscape-font-specification:Monospace" transform="matrix(.9772 0 0 .9772 3.84 -6.08)"><tspan x=".81" y="34.75">@3@</tspan></text><text xml:space="preserve" x="-3.1" y="35.13" fill="#1a1a1a" stroke-width=".51" font-family="Monospace" font-size="4.09" font-weight="400" style="-inkscape-font-specification:Monospace" transform="matrix(.9772 0 0 .9772 3.84 -6.08)"><tspan x="-3.1" y="35.13">4</tspan></text><path fill="#ffe16b" stroke="#f9f9f9" stroke-width=".25" d="M0 25.55h110v4.76H0z" transform="matrix(.9547 0 0 1.0001 3.84 -6.08)"/><text xml:space="preserve" x=".81" y="29.7" fill="#1a1a1a" stroke-width=".51" font-family="Monospace" font-size="4.09" font-weight="400" style="-inkscape-font-specification:Monospace" transform="matrix(.9772 0 0 .9772 3.84 -6.08)"><tspan x=".81" y="29.7">@2@</tspan></text><text xml:space="preserve" x="-3.08" y="30.08" fill="#1a1a1a" stroke-width=".51" font-family="Monospace" font-size="4.09" font-weight="400" style="-inkscape-font-specification:Monospace" transform="matrix(.9772 0 0 .9772 3.84 -6.08)"><tspan x="-3.08" y="30.08">3</tspan></text><path fill="#ffa154" stroke="#f9f9f9" stroke-width=".25" d="M0 20.61h110v4.76H0z" transform="matrix(.9547 0 0 1.0001 3.84 -6.08)"/><text xml:space="preserve" x=".81" y="24.65" fill="#1a1a1a" stroke-width=".51" font-family="Monospace" font-size="4.09" font-weight="400" style="-inkscape-font-specification:Monospace" transform="matrix(.9772 0 0 .9772 3.84 -6.08)"><tspan x=".81" y="24.65">@1@</tspan></text><text xml:space="preserve" x="-3.07" y="25.05" fill="#1a1a1a" stroke-width=".51" font-family="Monospace" font-size="4.09" font-weight="400" style="-inkscape-font-specification:Monospace" transform="matrix(.9772 0 0 .9772 3.84 -6.08)"><tspan x="-3.07" y="25.05">2</tspan></text><path fill="#ed5353" stroke="#f9f9f9" stroke-width=".25" d="M0 15.67h110v4.76H0z" transform="matrix(.9547 0 0 1.0001 3.84 -6.08)"/><text xml:space="preserve" x=".81" y="19.59" fill="#1a1a1a" stroke-width=".51" font-family="Monospace" font-size="4.09" font-weight="400" style="-inkscape-font-specification:Monospace" transform="matrix(.9772 0 0 .9772 3.84 -6.08)"><tspan x=".81" y="19.59">@0@</tspan></text><text xml:space="preserve" x="-3.2" y="19.97" fill="#1a1a1a" stroke-width=".51" font-family="Monospace" font-size="4.09" font-weight="400" style="-inkscape-font-specification:Monospace" transform="matrix(.9772 0 0 .9772 3.84 -6.08)"><tspan x="-3.2" y="19.97">1</tspan></text><text xml:space="preserve" x="4.64" y="8.13" fill="#1a1a1a" stroke-width=".5" font-family="Monospace" font-size="4" font-weight="400" style="-inkscape-font-specification:Monospace"><tspan x="4.64" y="8.13" font-weight="700" style="-inkscape-font-specification:&quot;Monospace Bold&quot;">@h@</tspan></text></svg>