<svg xmlns="http://www.w3.org/2000/svg" xmlns:xlink="http://www.w3.org/1999/xlink" width="400" height="220" viewBox="0 0 100 55"><defs><linearGradient id="d"><stop offset="0" stop-color="#d4d4d4"/><stop offset="1" stop-color="#fafafa"/></linearGradient><linearGradient id="a"><stop offset="0" stop-color="#0d52bf"/><stop offset="1" stop-color="#3689e6"/></linearGradient><linearGradient id="c"><stop offset="0" stop-color="#43d6b5"/><stop offset="1" stop-color="#28bca3"/></linearGradient><linearGradient xlink:href="#a" id="e" x1="3.818" x2="11.202" y1="6.353" y2="6.353" gradientTransform="matrix(1.0237 0 0 .7532 -1.248 -11.212)" gradientUnits="userSpaceOnUse"/><linearGradient xlink:href="#c" id="b" x1="3.818" x2="11.202" y1="6.353" y2="6.353" gradientTransform="matrix(1.0237 0 0 .7532 -1.248 -11.212)" gradientUnits="userSpaceOnUse"/><linearGradient xlink:href="#d" id="g" x1="6.427" x2="6.427" y1="2.661" y2="10.22" gradientUnits="userSpaceOnUse"/><linearGradient xlink:href="#d" id="h" x1="3.382" x2="4.948" y1="5.087" y2="5.087" gradientUnits="userSpaceOnUse"/><linearGradient xlink:href="#a" id="i" x1="4.278" x2="4.278" y1="3.776" y2="6.468" gradientTransform="matrix(.8444 0 0 .8444 1.885 3.972)" gradientUnits="userSpaceOnUse"/><linearGradient xlink:href="#a" id="j" x1="3.818" x2="11.202" y1="6.353" y2="6.353" gradientTransform="matrix(1.0237 0 0 .7532 -1.248 -11.212)" gradientUnits="userSpaceOnUse"/><linearGradient xlink:href="#d" id="k" x1="6.427" x2="6.427" y1="2.661" y2="10.22" gradientUnits="userSpaceOnUse"/><linearGradient xlink:href="#d" id="l" x1="3.382" x2="4.948" y1="5.087" y2="5.087" gradientUnits="userSpaceOnUse"/><linearGradient xlink:href="#a" id="m" x1="4.278" x2="4.278" y1="3.776" y2="6.468" gradientTransform="matrix(.8444 0 0 .8444 1.885 3.972)" gradientUnits="userSpaceOnUse"/><linearGradient xlink:href="#a" id="n" x1="3.818" x2="11.202" y1="6.353" y2="6.353" gradientTransform="matrix(1.0237 0 0 .7532 -1.248 -11.212)" gradientUnits="userSpaceOnUse"/><linearGradient xlink:href="#d" id="o" x1="6.427" x2="6.427" y1="2.661" y2="10.22" gradientUnits="userSpaceOnUse"/><linearGradient xlink:href="#d" id="p" x1="3.382" x2="4.948" y1="5.087" y2="5.087" gradientUnits="userSpaceOnUse"/><linearGradient xlink:href="#a" id="q" x1="4.278" x2="4.278" y1="3.776" y2="6.468" gradientTransform="matrix(.8444 0 0 .8444 1.885 3.972)" gradientUnits="userSpaceOnUse"/><linearGradient xlink:href="#a" id="r" x1="3.818" x2="11.202" y1="6.353" y2="6.353" gradientTransform="matrix(1.0237 0 0 .7532 -1.248 -11.212)" gradientUnits="userSpaceOnUse"/><linearGradient xlink:href="#d" id="s" x1="6.427" x2="6.427" y1="2.661" y2="10.22" gradientUnits="userSpaceOnUse"/><linearGradient xlink:href="#d" id="t" x1="3.382" x2="4.948" y1="5.087" y2="5.087" gradientUnits="userSpaceOnUse"/><linearGradient xlink:href="#a" id="u" x1="4.278" x2="4.278" y1="3.776" y2="6.468" gradientTransform="matrix(.8444 0 0 .8444 1.885 3.972)" gradientUnits="userSpaceOnUse"/><linearGradient xlink:href="#a" id="v" x1="3.818" x2="11.202" y1="6.353" y2="6.353" gradientTransform="matrix(1.0237 0 0 .7532 -1.248 -11.212)" gradientUnits="userSpaceOnUse"/><linearGradient xlink:href="#d" id="w" x1="6.427" x2="6.427" y1="2.661" y2="10.22" gradientUnits="userSpaceOnUse"/><linearGradient xlink:href="#d" id="x" x1="3.382" x2="4.948" y1="5.087" y2="5.087" gradientUnits="userSpaceOnUse"/><linearGradient xlink:href="#a" id="y" x1="4.278" x2="4.278" y1="3.776" y2="6.468" gradientTransform="matrix(.8444 0 0 .8444 1.885 3.972)" gradientUnits="userSpaceOnUse"/><linearGradient xlink:href="#a" id="P" x1="3.818" x2="11.202" y1="6.353" y2="6.353" gradientTransform="matrix(1.0237 0 0 .7532 -1.248 -11.212)" gradientUnits="userSpaceOnUse"/><linearGradient xlink:href="#d" id="Q" x1="6.427" x2="6.427" y1="2.661" y2="10.22" gradientUnits="userSpaceOnUse"/><linearGradient xlink:href="#d" id="R" x1="3.382" x2="4.948" y1="5.087" y2="5.087" gradientUnits="userSpaceOnUse"/><linearGradient xlink:href="#a" id="S" x1="4.278" x2="4.278" y1="3.776" y2="6.468" gradientTransform="matrix(.8444 0 0 .8444 1.885 3.972)" gradientUnits="userSpaceOnUse"/><linearGradient xlink:href="#a" id="L" x1="3.818" x2="11.202" y1="6.353" y2="6.353" gradientTransform="matrix(1.0237 0 0 .7532 -1.248 -11.212)" gradientUnits="userSpaceOnUse"/><linearGradient xlink:href="#d" id="M" x1="6.427" x2="6.427" y1="2.661" y2="10.22" gradientUnits="userSpaceOnUse"/><linearGradient xlink:href="#d" id="N" x1="3.382" x2="4.948" y1="5.087" y2="5.087" gradientUnits="userSpaceOnUse"/><linearGradient xlink:href="#a" id="O" x1="4.278" x2="4.278" y1="3.776" y2="6.468" gradientTransform="matrix(.8444 0 0 .8444 1.885 3.972)" gradientUnits="userSpaceOnUse"/><linearGradient xlink:href="#a" id="H" x1="3.818" x2="11.202" y1="6.353" y2="6.353" gradientTransform="matrix(1.0237 0 0 .7532 -1.248 -11.212)" gradientUnits="userSpaceOnUse"/><linearGradient xlink:href="#d" id="I" x1="6.427" x2="6.427" y1="2.661" y2="10.22" gradientUnits="userSpaceOnUse"/><linearGradient xlink:href="#d" id="J" x1="3.382" x2="4.948" y1="5.087" y2="5.087" gradientUnits="userSpaceOnUse"/><linearGradient xlink:href="#a" id="K" x1="4.278" x2="4.278" y1="3.776" y2="6.468" gradientTransform="matrix(.8444 0 0 .8444 1.885 3.972)" gradientUnits="userSpaceOnUse"/><linearGradient xlink:href="#a" id="D" x1="3.818" x2="11.202" y1="6.353" y2="6.353" gradientTransform="matrix(1.0237 0 0 .7532 -1.248 -11.212)" gradientUnits="userSpaceOnUse"/><linearGradient xlink:href="#d" id="E" x1="6.427" x2="6.427" y1="2.661" y2="10.22" gradientUnits="userSpaceOnUse"/><linearGradient xlink:href="#d" id="F" x1="3.382" x2="4.948" y1="5.087" y2="5.087" gradientUnits="userSpaceOnUse"/><linearGradient xlink:href="#a" id="G" x1="4.278" x2="4.278" y1="3.776" y2="6.468" gradientTransform="matrix(.8444 0 0 .8444 1.885 3.972)" gradientUnits="userSpaceOnUse"/><linearGradient xlink:href="#a" id="z" x1="3.818" x2="11.202" y1="6.353" y2="6.353" gradientTransform="matrix(1.0237 0 0 .7532 -1.248 -11.212)" gradientUnits="userSpaceOnUse"/><linearGradient xlink:href="#d" id="A" x1="6.427" x2="6.427" y1="2.661" y2="10.22" gradientUnits="userSpaceOnUse"/><linearGradient xlink:href="#d" id="B" x1="3.382" x2="4.948" y1="5.087" y2="5.087" gradientUnits="userSpaceOnUse"/><linearGradient xlink:href="#a" id="C" x1="4.278" x2="4.278" y1="3.776" y2="6.468" gradientTransform="matrix(.8444 0 0 .8444 1.885 3.972)" gradientUnits="userSpaceOnUse"/><linearGradient xlink:href="#a" id="az" x1="3.818" x2="11.202" y1="6.353" y2="6.353" gradientTransform="matrix(1.0237 0 0 .7532 -1.248 -11.212)" gradientUnits="userSpaceOnUse"/><linearGradient xlink:href="#d" id="aA" x1="6.427" x2="6.427" y1="2.661" y2="10.22" gradientUnits="userSpaceOnUse"/><linearGradient xlink:href="#d" id="aB" x1="3.382" x2="4.948" y1="5.087" y2="5.087" gradientUnits="userSpaceOnUse"/><linearGradient xlink:href="#a" id="aC" x1="4.278" x2="4.278" y1="3.776" y2="6.468" gradientTransform="matrix(.8444 0 0 .8444 1.885 3.972)" gradientUnits="userSpaceOnUse"/><linearGradient xlink:href="#a" id="av" x1="3.818" x2="11.202" y1="6.353" y2="6.353" gradientTransform="matrix(1.0237 0 0 .7532 -1.248 -11.212)" gradientUnits="userSpaceOnUse"/><linearGradient xlink:href="#d" id="aw" x1="6.427" x2="6.427" y1="2.661" y2="10.22" gradientUnits="userSpaceOnUse"/><linearGradient xlink:href="#d" id="ax" x1="3.382" x2="4.948" y1="5.087" y2="5.087" gradientUnits="userSpaceOnUse"/><linearGradient xlink:href="#a" id="ay" x1="4.278" x2="4.278" y1="3.776" y2="6.468" gradientTransform="matrix(.8444 0 0 .8444 1.885 3.972)" gradientUnits="userSpaceOnUse"/><linearGradient xlink:href="#a" id="ar" x1="3.818" x2="11.202" y1="6.353" y2="6.353" gradientTransform="matrix(1.0237 0 0 .7532 -1.248 -11.212)" gradientUnits="userSpaceOnUse"/><linearGradient xlink:href="#d" id="as" x1="6.427" x2="6.427" y1="2.661" y2="10.22" gradientUnits="userSpaceOnUse"/><linearGradient xlink:href="#d" id="at" x1="3.382" x2="4.948" y1="5.087" y2="5.087" gradientUnits="userSpaceOnUse"/><linearGradient xlink:href="#a" id="au" x1="4.278" x2="4.278" y1="3.776" y2="6.468" gradientTransform="matrix(.8444 0 0 .8444 1.885 3.972)" gradientUnits="userSpaceOnUse"/><linearGradient xlink:href="#a" id="an" x1="3.818" x2="11.202" y1="6.353" y2="6.353" gradientTransform="matrix(1.0237 0 0 .7532 -1.248 -11.212)" gradientUnits="userSpaceOnUse"/><linearGradient xlink:href="#d" id="ao" x1="6.427" x2="6.427" y1="2.661" y2="10.22" gradientUnits="userSpaceOnUse"/><linearGradient xlink:href="#d" id="ap" x1="3.382" x2="4.948" y1="5.087" y2="5.087" gradientUnits="userSpaceOnUse"/><linearGradient xlink:href="#a" id="aq" x1="4.278" x2="4.278" y1="3.776" y2="6.468" gradientTransform="matrix(.8444 0 0 .8444 1.885 3.972)" gradientUnits="userSpaceOnUse"/><linearGradient xlink:href="#a" id="aj" x1="3.818" x2="11.202" y1="6.353" y2="6.353" gradientTransform="matrix(1.0237 0 0 .7532 -1.248 -11.212)" gradientUnits="userSpaceOnUse"/><linearGradient xlink:href="#d" id="ak" x1="6.427" x2="6.427" y1="2.661" y2="10.22" gradientUnits="userSpaceOnUse"/><linearGradient xlink:href="#d" id="al" x1="3.382" x2="4.948" y1="5.087" y2="5.087" gradientUnits="userSpaceOnUse"/><linearGradient xlink:href="#a" id="am" x1="4.278" x2="4.278" y1="3.776" y2="6.468" gradientTransform="matrix(.8444 0 0 .8444 1.885 3.972)" gradientUnits="userSpaceOnUse"/><linearGradient xlink:href="#a" id="af" x1="3.818" x2="11.202" y1="6.353" y2="6.353" gradientTransform="matrix(1.0237 0 0 .7532 -1.248 -11.212)" gradientUnits="userSpaceOnUse"/><linearGradient xlink:href="#d" id="ag" x1="6.427" x2="6.427" y1="2.661" y2="10.22" gradientUnits="userSpaceOnUse"/><linearGradient xlink:href="#d" id="ah" x1="3.382" x2="4.948" y1="5.087" y2="5.087" gradientUnits="userSpaceOnUse"/><linearGradient xlink:href="#a" id="ai" x1="4.278" x2="4.278" y1="3.776" y2="6.468" gradientTransform="matrix(.8444 0 0 .8444 1.885 3.972)" gradientUnits="userSpaceOnUse"/><linearGradient xlink:href="#a" id="ab" x1="3.818" x2="11.202" y1="6.353" y2="6.353" gradientTransform="matrix(1.0237 0 0 .7532 -1.248 -11.212)" gradientUnits="userSpaceOnUse"/><linearGradient xlink:href="#d" id="ac" x1="6.427" x2="6.427" y1="2.661" y2="10.22" gradientUnits="userSpaceOnUse"/><linearGradient xlink:href="#d" id="ad" x1="3.382" x2="4.948" y1="5.087" y2="5.087" gradientUnits="userSpaceOnUse"/><linearGradient xlink:href="#a" id="ae" x1="4.278" x2="4.278" y1="3.776" y2="6.468" gradientTransform="matrix(.8444 0 0 .8444 1.885 3.972)" gradientUnits="userSpaceOnUse"/><linearGradient xlink:href="#a" id="X" x1="3.818" x2="11.202" y1="6.353" y2="6.353" gradientTransform="matrix(1.0237 0 0 .7532 -1.248 -11.212)" gradientUnits="userSpaceOnUse"/><linearGradient xlink:href="#d" id="Y" x1="6.427" x2="6.427" y1="2.661" y2="10.22" gradientUnits="userSpaceOnUse"/><linearGradient xlink:href="#d" id="Z" x1="3.382" x2="4.948" y1="5.087" y2="5.087" gradientUnits="userSpaceOnUse"/><linearGradient xlink:href="#a" id="aa" x1="4.278" x2="4.278" y1="3.776" y2="6.468" gradientTransform="matrix(.8444 0 0 .8444 1.885 3.972)" gradientUnits="userSpaceOnUse"/><linearGradient xlink:href="#a" id="T" x1="3.818" x2="11.202" y1="6.353" y2="6.353" gradientTransform="matrix(1.0237 0 0 .7532 -1.248 -11.212)" gradientUnits="userSpaceOnUse"/><linearGradient xlink:href="#d" id="U" x1="6.427" x2="6.427" y1="2.661" y2="10.22" gradientUnits="userSpaceOnUse"/><linearGradient xlink:href="#d" id="V" x1="3.382" x2="4.948" y1="5.087" y2="5.087" gradientUnits="userSpaceOnUse"/><linearGradient xlink:href="#a" id="W" x1="4.278" x2="4.278" y1="3.776" y2="6.468" gradientTransform="matrix(.8444 0 0 .8444 1.885 3.972)" gradientUnits="userSpaceOnUse"/><linearGradient xlink:href="#a" id="bb" x1="3.818" x2="11.202" y1="6.353" y2="6.353" gradientTransform="matrix(1.0237 0 0 .7532 -1.248 -11.212)" gradientUnits="userSpaceOnUse"/><linearGradient xlink:href="#d" id="bc" x1="6.427" x2="6.427" y1="2.661" y2="10.22" gradientUnits="userSpaceOnUse"/><linearGradient xlink:href="#d" id="bd" x1="3.382" x2="4.948" y1="5.087" y2="5.087" gradientUnits="userSpaceOnUse"/><linearGradient xlink:href="#a" id="be" x1="4.278" x2="4.278" y1="3.776" y2="6.468" gradientTransform="matrix(.8444 0 0 .8444 1.885 3.972)" gradientUnits="userSpaceOnUse"/><linearGradient xlink:href="#a" id="aX" x1="3.818" x2="11.202" y1="6.353" y2="6.353" gradientTransform="matrix(1.0237 0 0 .7532 -1.248 -11.212)" gradientUnits="userSpaceOnUse"/><linearGradient xlink:href="#d" id="aY" x1="6.427" x2="6.427" y1="2.661" y2="10.22" gradientUnits="userSpaceOnUse"/><linearGradient xlink:href="#d" id="aZ" x1="3.382" x2="4.948" y1="5.087" y2="5.087" gradientUnits="userSpaceOnUse"/><linearGradient xlink:href="#a" id="ba" x1="4.278" x2="4.278" y1="3.776" y2="6.468" gradientTransform="matrix(.8444 0 0 .8444 1.885 3.972)" gradientUnits="userSpaceOnUse"/><linearGradient xlink:href="#a" id="aT" x1="3.818" x2="11.202" y1="6.353" y2="6.353" gradientTransform="matrix(1.0237 0 0 .7532 -1.248 -11.212)" gradientUnits="userSpaceOnUse"/><linearGradient xlink:href="#d" id="aU" x1="6.427" x2="6.427" y1="2.661" y2="10.22" gradientUnits="userSpaceOnUse"/><linearGradient xlink:href="#d" id="aV" x1="3.382" x2="4.948" y1="5.087" y2="5.087" gradientUnits="userSpaceOnUse"/><linearGradient xlink:href="#a" id="aW" x1="4.278" x2="4.278" y1="3.776" y2="6.468" gradientTransform="matrix(.8444 0 0 .8444 1.885 3.972)" gradientUnits="userSpaceOnUse"/><linearGradient xlink:href="#a" id="aP" x1="3.818" x2="11.202" y1="6.353" y2="6.353" gradientTransform="matrix(1.0237 0 0 .7532 -1.248 -11.212)" gradientUnits="userSpaceOnUse"/><linearGradient xlink:href="#d" id="aQ" x1="6.427" x2="6.427" y1="2.661" y2="10.22" gradientUnits="userSpaceOnUse"/><linearGradient xlink:href="#d" id="aR" x1="3.382" x2="4.948" y1="5.087" y2="5.087" gradientUnits="userSpaceOnUse"/><linearGradient xlink:href="#a" id="aS" x1="4.278" x2="4.278" y1="3.776" y2="6.468" gradientTransform="matrix(.8444 0 0 .8444 1.885 3.972)" gradientUnits="userSpaceOnUse"/><linearGradient xlink:href="#a" id="aL" x1="3.818" x2="11.202" y1="6.353" y2="6.353" gradientTransform="matrix(1.0237 0 0 .7532 -1.248 -11.212)" gradientUnits="userSpaceOnUse"/><linearGradient xlink:href="#d" id="aM" x1="6.427" x2="6.427" y1="2.661" y2="10.22" gradientUnits="userSpaceOnUse"/><linearGradient xlink:href="#d" id="aN" x1="3.382" x2="4.948" y1="5.087" y2="5.087" gradientUnits="userSpaceOnUse"/><linearGradient xlink:href="#a" id="aO" x1="4.278" x2="4.278" y1="3.776" y2="6.468" gradientTransform="matrix(.8444 0 0 .8444 1.885 3.972)" gradientUnits="userSpaceOnUse"/><linearGradient xlink:href="#a" id="aH" x1="3.818" x2="11.202" y1="6.353" y2="6.353" gradientTransform="matrix(1.0237 0 0 .7532 -1.248 -11.212)" gradientUnits="userSpaceOnUse"/><linearGradient xlink:href="#d" id="aI" x1="6.427" x2="6.427" y1="2.661" y2="10.22" gradientUnits="userSpaceOnUse"/><linearGradient xlink:href="#d" id="aJ" x1="3.382" x2="4.948" y1="5.087" y2="5.087" gradientUnits="userSpaceOnUse"/><linearGradient xlink:href="#a" id="aK" x1="4.278" x2="4.278" y1="3.776" y2="6.468" gradientTransform="matrix(.8444 0 0 .8444 1.885 3.972)" gradientUnits="userSpaceOnUse"/><linearGradient xlink:href="#a" id="aD" x1="3.818" x2="11.202" y1="6.353" y2="6.353" gradientTransform="matrix(1.0237 0 0 .7532 -1.248 -11.212)" gradientUnits="userSpaceOnUse"/><linearGradient xlink:href="#d" id="aE" x1="6.427" x2="6.427" y1="2.661" y2="10.22" gradientUnits="userSpaceOnUse"/><linearGradient xlink:href="#d" id="aF" x1="3.382" x2="4.948" y1="5.087" y2="5.087" gradientUnits="userSpaceOnUse"/><linearGradient xlink:href="#a" id="aG" x1="4.278" x2="4.278" y1="3.776" y2="6.468" gradientTransform="matrix(.8444 0 0 .8444 1.885 3.972)" gradientUnits="userSpaceOnUse"/><linearGradient xlink:href="#a" id="bf" x1="49.184" x2="49.184" y1="50.343" y2="42.456" gradientUnits="userSpaceOnUse"/><clipPath id="f" clipPathUnits="userSpaceOnUse"><rect width="7.559" height="6.614" x="2.661" y="-9.734" fill="url(#b)" stroke-opacity=".5" stroke-width="0" paint-order="markers stroke fill" ry="0" transform="rotate(90)"/></clipPath></defs><g paint-order="markers stroke fill"><g transform="translate(3.731 2.012) scale(1.1842)"><rect width="7.559" height="6.614" x="2.661" y="-9.734" fill="url(#e)" ry="0" transform="rotate(90)"/><path fill="url(#g)" d="M9.734 2.66 3.12 10.22h6.614z" clip-path="url(#f)"/><text xml:space="preserve" x="3.262" y="6.003" fill="url(#h)" stroke-linejoin="bevel" stroke-width=".25" font-family="Monospace" font-size="3" font-style="italic" font-weight="400" style="-inkscape-font-specification:&quot;Monospace Italic&quot;" transform="matrix(.8444 0 0 .8444 1.108 .316)"><tspan x="3.262" y="6.003">@k0@</tspan></text><text xml:space="preserve" x="8.991" y="9.041" fill="url(#i)" stroke-linejoin="bevel" stroke-width=".211" font-family="Monospace" font-size="2.533" font-style="italic" font-weight="400" style="-inkscape-font-specification:&quot;Monospace Italic&quot;"><tspan x="8.991" y="9.041" style="text-align:end" text-anchor="end">@0@</tspan></text></g><g transform="translate(12.316 2.012) scale(1.1842)"><rect width="7.559" height="6.614" x="2.661" y="-9.734" fill="url(#j)" ry="0" transform="rotate(90)"/><path fill="url(#k)" d="M9.734 2.66 3.12 10.22h6.614z" clip-path="url(#f)"/><text xml:space="preserve" x="3.262" y="6.003" fill="url(#l)" stroke-linejoin="bevel" stroke-width=".25" font-family="Monospace" font-size="3" font-style="italic" font-weight="400" style="-inkscape-font-specification:&quot;Monospace Italic&quot;" transform="matrix(.8444 0 0 .8444 1.108 .316)"><tspan x="3.262" y="6.003">@k1@</tspan></text><text xml:space="preserve" x="8.991" y="9.041" fill="url(#m)" stroke-linejoin="bevel" stroke-width=".211" font-family="Monospace" font-size="2.533" font-style="italic" font-weight="400" style="-inkscape-font-specification:&quot;Monospace Italic&quot;"><tspan x="8.991" y="9.041" style="text-align:end" text-anchor="end">@1@</tspan></text></g><g transform="translate(20.901 2.012) scale(1.1842)"><rect width="7.559" height="6.614" x="2.661" y="-9.734" fill="url(#n)" ry="0" transform="rotate(90)"/><path fill="url(#o)" d="M9.734 2.66 3.12 10.22h6.614z" clip-path="url(#f)"/><text xml:space="preserve" x="3.262" y="6.003" fill="url(#p)" stroke-linejoin="bevel" stroke-width=".25" font-family="Monospace" font-size="3" font-style="italic" font-weight="400" style="-inkscape-font-specification:&quot;Monospace Italic&quot;" transform="matrix(.8444 0 0 .8444 1.108 .316)"><tspan x="3.262" y="6.003">@k2@</tspan></text><text xml:space="preserve" x="8.991" y="9.041" fill="url(#q)" stroke-linejoin="bevel" stroke-width=".211" font-family="Monospace" font-size="2.533" font-style="italic" font-weight="400" style="-inkscape-font-specification:&quot;Monospace Italic&quot;"><tspan x="8.991" y="9.041" style="text-align:end" text-anchor="end">@2@</tspan></text></g><g transform="translate(29.486 2.012) scale(1.1842)"><rect width="7.559" height="6.614" x="2.661" y="-9.734" fill="url(#r)" ry="0" transform="rotate(90)"/><path fill="url(#s)" d="M9.734 2.66 3.12 10.22h6.614z" clip-path="url(#f)"/><text xml:space="preserve" x="3.262" y="6.003" fill="url(#t)" stroke-linejoin="bevel" stroke-width=".25" font-family="Monospace" font-size="3" font-style="italic" font-weight="400" style="-inkscape-font-specification:&quot;Monospace Italic&quot;" transform="matrix(.8444 0 0 .8444 1.108 .316)"><tspan x="3.262" y="6.003">@k3@</tspan></text><text xml:space="preserve" x="8.991" y="9.041" fill="url(#u)" stroke-linejoin="bevel" stroke-width=".211" font-family="Monospace" font-size="2.533" font-style="italic" font-weight="400" style="-inkscape-font-specification:&quot;Monospace Italic&quot;"><tspan x="8.991" y="9.041" style="text-align:end" text-anchor="end">@3@</tspan></text></g><g transform="translate(38.07 2.012) scale(1.1842)"><rect width="7.559" height="6.614" x="2.661" y="-9.734" fill="url(#v)" ry="0" transform="rotate(90)"/><path fill="url(#w)" d="M9.734 2.66 3.12 10.22h6.614z" clip-path="url(#f)"/><text xml:space="preserve" x="3.262" y="6.003" fill="url(#x)" stroke-linejoin="bevel" stroke-width=".25" font-family="Monospace" font-size="3" font-style="italic" font-weight="400" style="-inkscape-font-specification:&quot;Monospace Italic&quot;" transform="matrix(.8444 0 0 .8444 1.108 .316)"><tspan x="3.262" y="6.003">@k4@</tspan></text><text xml:space="preserve" x="8.991" y="9.041" fill="url(#y)" stroke-linejoin="bevel" stroke-width=".211" font-family="Monospace" font-size="2.533" font-style="italic" font-weight="400" style="-inkscape-font-specification:&quot;Monospace Italic&quot;"><tspan x="8.991" y="9.041" style="text-align:end" text-anchor="end">@4@</tspan></text></g><g transform="translate(46.656 2.012) scale(1.1842)"><rect width="7.559" height="6.614" x="2.661" y="-9.734" fill="url(#z)" ry="0" transform="rotate(90)"/><path fill="url(#A)" d="M9.734 2.66 3.12 10.22h6.614z" clip-path="url(#f)"/><text xml:space="preserve" x="3.262" y="6.003" fill="url(#B)" stroke-linejoin="bevel" stroke-width=".25" font-family="Monospace" font-size="3" font-style="italic" font-weight="400" style="-inkscape-font-specification:&quot;Monospace Italic&quot;" transform="matrix(.8444 0 0 .8444 1.108 .316)"><tspan x="3.262" y="6.003">@k5@</tspan></text><text xml:space="preserve" x="8.991" y="9.041" fill="url(#C)" stroke-linejoin="bevel" stroke-width=".211" font-family="Monospace" font-size="2.533" font-style="italic" font-weight="400" style="-inkscape-font-specification:&quot;Monospace Italic&quot;"><tspan x="8.991" y="9.041" style="text-align:end" text-anchor="end">@5@</tspan></text></g><g transform="translate(55.24 2.012) scale(1.1842)"><rect width="7.559" height="6.614" x="2.661" y="-9.734" fill="url(#D)" ry="0" transform="rotate(90)"/><path fill="url(#E)" d="M9.734 2.66 3.12 10.22h6.614z" clip-path="url(#f)"/><text xml:space="preserve" x="3.262" y="6.003" fill="url(#F)" stroke-linejoin="bevel" stroke-width=".25" font-family="Monospace" font-size="3" font-style="italic" font-weight="400" style="-inkscape-font-specification:&quot;Monospace Italic&quot;" transform="matrix(.8444 0 0 .8444 1.108 .316)"><tspan x="3.262" y="6.003">@k6@</tspan></text><text xml:space="preserve" x="8.991" y="9.041" fill="url(#G)" stroke-linejoin="bevel" stroke-width=".211" font-family="Monospace" font-size="2.533" font-style="italic" font-weight="400" style="-inkscape-font-specification:&quot;Monospace Italic&quot;"><tspan x="8.991" y="9.041" style="text-align:end" text-anchor="end">@6@</tspan></text></g><g transform="translate(63.826 2.012) scale(1.1842)"><rect width="7.559" height="6.614" x="2.661" y="-9.734" fill="url(#H)" ry="0" transform="rotate(90)"/><path fill="url(#I)" d="M9.734 2.66 3.12 10.22h6.614z" clip-path="url(#f)"/><text xml:space="preserve" x="3.262" y="6.003" fill="url(#J)" stroke-linejoin="bevel" stroke-width=".25" font-family="Monospace" font-size="3" font-style="italic" font-weight="400" style="-inkscape-font-specification:&quot;Monospace Italic&quot;" transform="matrix(.8444 0 0 .8444 1.108 .316)"><tspan x="3.262" y="6.003">@k7@</tspan></text><text xml:space="preserve" x="8.991" y="9.041" fill="url(#K)" stroke-linejoin="bevel" stroke-width=".211" font-family="Monospace" font-size="2.533" font-style="italic" font-weight="400" style="-inkscape-font-specification:&quot;Monospace Italic&quot;"><tspan x="8.991" y="9.041" style="text-align:end" text-anchor="end">@7@</tspan></text></g><g transform="translate(72.41 2.012) scale(1.1842)"><rect width="7.559" height="6.614" x="2.661" y="-9.734" fill="url(#L)" ry="0" transform="rotate(90)"/><path fill="url(#M)" d="M9.734 2.66 3.12 10.22h6.614z" clip-path="url(#f)"/><text xml:space="preserve" x="3.262" y="6.003" fill="url(#N)" stroke-linejoin="bevel" stroke-width=".25" font-family="Monospace" font-size="3" font-style="italic" font-weight="400" style="-inkscape-font-specification:&quot;Monospace Italic&quot;" transform="matrix(.8444 0 0 .8444 1.108 .316)"><tspan x="3.262" y="6.003">@k8@</tspan></text><text xml:space="preserve" x="8.991" y="9.041" fill="url(#O)" stroke-linejoin="bevel" stroke-width=".211" font-family="Monospace" font-size="2.533" font-style="italic" font-weight="400" style="-inkscape-font-specification:&quot;Monospace Italic&quot;"><tspan x="8.991" y="9.041" style="text-align:end" text-anchor="end">@8@</tspan></text></g><g transform="translate(80.995 2.012) scale(1.1842)"><rect width="7.559" height="6.614" x="2.661" y="-9.734" fill="url(#P)" ry="0" transform="rotate(90)"/><path fill="url(#Q)" d="M9.734 2.66 3.12 10.22h6.614z" clip-path="url(#f)"/><text xml:space="preserve" x="3.262" y="6.003" fill="url(#R)" stroke-linejoin="bevel" stroke-width=".25" font-family="Monospace" font-size="3" font-style="italic" font-weight="400" style="-inkscape-font-specification:&quot;Monospace Italic&quot;" transform="matrix(.8444 0 0 .8444 1.108 .316)"><tspan x="3.262" y="6.003">@k9@</tspan></text><text xml:space="preserve" x="8.991" y="9.041" fill="url(#S)" stroke-linejoin="bevel" stroke-width=".211" font-family="Monospace" font-size="2.533" font-style="italic" font-weight="400" style="-inkscape-font-specification:&quot;Monospace Italic&quot;"><tspan x="8.991" y="9.041" style="text-align:end" text-anchor="end">@9@</tspan></text></g><g transform="translate(7.234 12.57) scale(1.1842)"><rect width="7.559" height="6.614" x="2.661" y="-9.734" fill="url(#T)" ry="0" transform="rotate(90)"/><path fill="url(#U)" d="M9.734 2.66 3.12 10.22h6.614z" clip-path="url(#f)"/><text xml:space="preserve" x="3.262" y="6.003" fill="url(#V)" stroke-linejoin="bevel" stroke-width=".25" font-family="Monospace" font-size="3" font-style="italic" font-weight="400" style="-inkscape-font-specification:&quot;Monospace Italic&quot;" transform="matrix(.8444 0 0 .8444 1.108 .316)"><tspan x="3.262" y="6.003">@k10@</tspan></text><text xml:space="preserve" x="8.991" y="9.041" fill="url(#W)" stroke-linejoin="bevel" stroke-width=".211" font-family="Monospace" font-size="2.533" font-style="italic" font-weight="400" style="-inkscape-font-specification:&quot;Monospace Italic&quot;"><tspan x="8.991" y="9.041" style="text-align:end" text-anchor="end">@10@</tspan></text></g><g transform="translate(15.819 12.57) scale(1.1842)"><rect width="7.559" height="6.614" x="2.661" y="-9.734" fill="url(#X)" ry="0" transform="rotate(90)"/><path fill="url(#Y)" d="M9.734 2.66 3.12 10.22h6.614z" clip-path="url(#f)"/><text xml:space="preserve" x="3.262" y="6.003" fill="url(#Z)" stroke-linejoin="bevel" stroke-width=".25" font-family="Monospace" font-size="3" font-style="italic" font-weight="400" style="-inkscape-font-specification:&quot;Monospace Italic&quot;" transform="matrix(.8444 0 0 .8444 1.108 .316)"><tspan x="3.262" y="6.003">@k11@</tspan></text><text xml:space="preserve" x="8.991" y="9.041" fill="url(#aa)" stroke-linejoin="bevel" stroke-width=".211" font-family="Monospace" font-size="2.533" font-style="italic" font-weight="400" style="-inkscape-font-specification:&quot;Monospace Italic&quot;"><tspan x="8.991" y="9.041" style="text-align:end" text-anchor="end">@11@</tspan></text></g><g transform="translate(24.404 12.57) scale(1.1842)"><rect width="7.559" height="6.614" x="2.661" y="-9.734" fill="url(#ab)" ry="0" transform="rotate(90)"/><path fill="url(#ac)" d="M9.734 2.66 3.12 10.22h6.614z" clip-path="url(#f)"/><text xml:space="preserve" x="3.262" y="6.003" fill="url(#ad)" stroke-linejoin="bevel" stroke-width=".25" font-family="Monospace" font-size="3" font-style="italic" font-weight="400" style="-inkscape-font-specification:&quot;Monospace Italic&quot;" transform="matrix(.8444 0 0 .8444 1.108 .316)"><tspan x="3.262" y="6.003">@k12@</tspan></text><text xml:space="preserve" x="8.991" y="9.041" fill="url(#ae)" stroke-linejoin="bevel" stroke-width=".211" font-family="Monospace" font-size="2.533" font-style="italic" font-weight="400" style="-inkscape-font-specification:&quot;Monospace Italic&quot;"><tspan x="8.991" y="9.041" style="text-align:end" text-anchor="end">@12@</tspan></text></g><g transform="translate(32.989 12.57) scale(1.1842)"><rect width="7.559" height="6.614" x="2.661" y="-9.734" fill="url(#af)" ry="0" transform="rotate(90)"/><path fill="url(#ag)" d="M9.734 2.66 3.12 10.22h6.614z" clip-path="url(#f)"/><text xml:space="preserve" x="3.262" y="6.003" fill="url(#ah)" stroke-linejoin="bevel" stroke-width=".25" font-family="Monospace" font-size="3" font-style="italic" font-weight="400" style="-inkscape-font-specification:&quot;Monospace Italic&quot;" transform="matrix(.8444 0 0 .8444 1.108 .316)"><tspan x="3.262" y="6.003">@k13@</tspan></text><text xml:space="preserve" x="8.991" y="9.041" fill="url(#ai)" stroke-linejoin="bevel" stroke-width=".211" font-family="Monospace" font-size="2.533" font-style="italic" font-weight="400" style="-inkscape-font-specification:&quot;Monospace Italic&quot;"><tspan x="8.991" y="9.041" style="text-align:end" text-anchor="end">@13@</tspan></text></g><g transform="translate(41.573 12.57) scale(1.1842)"><rect width="7.559" height="6.614" x="2.661" y="-9.734" fill="url(#aj)" ry="0" transform="rotate(90)"/><path fill="url(#ak)" d="M9.734 2.66 3.12 10.22h6.614z" clip-path="url(#f)"/><text xml:space="preserve" x="3.262" y="6.003" fill="url(#al)" stroke-linejoin="bevel" stroke-width=".25" font-family="Monospace" font-size="3" font-style="italic" font-weight="400" style="-inkscape-font-specification:&quot;Monospace Italic&quot;" transform="matrix(.8444 0 0 .8444 1.108 .316)"><tspan x="3.262" y="6.003">@k14@</tspan></text><text xml:space="preserve" x="8.991" y="9.041" fill="url(#am)" stroke-linejoin="bevel" stroke-width=".211" font-family="Monospace" font-size="2.533" font-style="italic" font-weight="400" style="-inkscape-font-specification:&quot;Monospace Italic&quot;"><tspan x="8.991" y="9.041" style="text-align:end" text-anchor="end">@14@</tspan></text></g><g transform="translate(50.158 12.57) scale(1.1842)"><rect width="7.559" height="6.614" x="2.661" y="-9.734" fill="url(#an)" ry="0" transform="rotate(90)"/><path fill="url(#ao)" d="M9.734 2.66 3.12 10.22h6.614z" clip-path="url(#f)"/><text xml:space="preserve" x="3.262" y="6.003" fill="url(#ap)" stroke-linejoin="bevel" stroke-width=".25" font-family="Monospace" font-size="3" font-style="italic" font-weight="400" style="-inkscape-font-specification:&quot;Monospace Italic&quot;" transform="matrix(.8444 0 0 .8444 1.108 .316)"><tspan x="3.262" y="6.003">@k15@</tspan></text><text xml:space="preserve" x="8.991" y="9.041" fill="url(#aq)" stroke-linejoin="bevel" stroke-width=".211" font-family="Monospace" font-size="2.533" font-style="italic" font-weight="400" style="-inkscape-font-specification:&quot;Monospace Italic&quot;"><tspan x="8.991" y="9.041" style="text-align:end" text-anchor="end">@15@</tspan></text></g><g transform="translate(58.743 12.57) scale(1.1842)"><rect width="7.559" height="6.614" x="2.661" y="-9.734" fill="url(#ar)" ry="0" transform="rotate(90)"/><path fill="url(#as)" d="M9.734 2.66 3.12 10.22h6.614z" clip-path="url(#f)"/><text xml:space="preserve" x="3.262" y="6.003" fill="url(#at)" stroke-linejoin="bevel" stroke-width=".25" font-family="Monospace" font-size="3" font-style="italic" font-weight="400" style="-inkscape-font-specification:&quot;Monospace Italic&quot;" transform="matrix(.8444 0 0 .8444 1.108 .316)"><tspan x="3.262" y="6.003">@k16@</tspan></text><text xml:space="preserve" x="8.991" y="9.041" fill="url(#au)" stroke-linejoin="bevel" stroke-width=".211" font-family="Monospace" font-size="2.533" font-style="italic" font-weight="400" style="-inkscape-font-specification:&quot;Monospace Italic&quot;"><tspan x="8.991" y="9.041" style="text-align:end" text-anchor="end">@16@</tspan></text></g><g transform="translate(67.328 12.57) scale(1.1842)"><rect width="7.559" height="6.614" x="2.661" y="-9.734" fill="url(#av)" ry="0" transform="rotate(90)"/><path fill="url(#aw)" d="M9.734 2.66 3.12 10.22h6.614z" clip-path="url(#f)"/><text xml:space="preserve" x="3.262" y="6.003" fill="url(#ax)" stroke-linejoin="bevel" stroke-width=".25" font-family="Monospace" font-size="3" font-style="italic" font-weight="400" style="-inkscape-font-specification:&quot;Monospace Italic&quot;" transform="matrix(.8444 0 0 .8444 1.108 .316)"><tspan x="3.262" y="6.003">@k17@</tspan></text><text xml:space="preserve" x="8.991" y="9.041" fill="url(#ay)" stroke-linejoin="bevel" stroke-width=".211" font-family="Monospace" font-size="2.533" font-style="italic" font-weight="400" style="-inkscape-font-specification:&quot;Monospace Italic&quot;"><tspan x="8.991" y="9.041" style="text-align:end" text-anchor="end">@17@</tspan></text></g><g transform="translate(75.913 12.57) scale(1.1842)"><rect width="7.559" height="6.614" x="2.661" y="-9.734" fill="url(#az)" ry="0" transform="rotate(90)"/><path fill="url(#aA)" d="M9.734 2.66 3.12 10.22h6.614z" clip-path="url(#f)"/><text xml:space="preserve" x="3.262" y="6.003" fill="url(#aB)" stroke-linejoin="bevel" stroke-width=".25" font-family="Monospace" font-size="3" font-style="italic" font-weight="400" style="-inkscape-font-specification:&quot;Monospace Italic&quot;" transform="matrix(.8444 0 0 .8444 1.108 .316)"><tspan x="3.262" y="6.003">@k18@</tspan></text><text xml:space="preserve" x="8.991" y="9.041" fill="url(#aC)" stroke-linejoin="bevel" stroke-width=".211" font-family="Monospace" font-size="2.533" font-style="italic" font-weight="400" style="-inkscape-font-specification:&quot;Monospace Italic&quot;"><tspan x="8.991" y="9.041" style="text-align:end" text-anchor="end">@18@</tspan></text></g><g transform="translate(15.819 23.127) scale(1.1842)"><rect width="7.559" height="6.614" x="2.661" y="-9.734" fill="url(#aD)" ry="0" transform="rotate(90)"/><path fill="url(#aE)" d="M9.734 2.66 3.12 10.22h6.614z" clip-path="url(#f)"/><text xml:space="preserve" x="3.262" y="6.003" fill="url(#aF)" stroke-linejoin="bevel" stroke-width=".25" font-family="Monospace" font-size="3" font-style="italic" font-weight="400" style="-inkscape-font-specification:&quot;Monospace Italic&quot;" transform="matrix(.8444 0 0 .8444 1.108 .316)"><tspan x="3.262" y="6.003">@k19@</tspan></text><text xml:space="preserve" x="8.991" y="9.041" fill="url(#aG)" stroke-linejoin="bevel" stroke-width=".211" font-family="Monospace" font-size="2.533" font-style="italic" font-weight="400" style="-inkscape-font-specification:&quot;Monospace Italic&quot;"><tspan x="8.991" y="9.041" style="text-align:end" text-anchor="end">@19@</tspan></text></g><g transform="translate(24.404 23.127) scale(1.1842)"><rect width="7.559" height="6.614" x="2.661" y="-9.734" fill="url(#aH)" ry="0" transform="rotate(90)"/><path fill="url(#aI)" d="M9.734 2.66 3.12 10.22h6.614z" clip-path="url(#f)"/><text xml:space="preserve" x="3.262" y="6.003" fill="url(#aJ)" stroke-linejoin="bevel" stroke-width=".25" font-family="Monospace" font-size="3" font-style="italic" font-weight="400" style="-inkscape-font-specification:&quot;Monospace Italic&quot;" transform="matrix(.8444 0 0 .8444 1.108 .316)"><tspan x="3.262" y="6.003">@k20@</tspan></text><text xml:space="preserve" x="8.991" y="9.041" fill="url(#aK)" stroke-linejoin="bevel" stroke-width=".211" font-family="Monospace" font-size="2.533" font-style="italic" font-weight="400" style="-inkscape-font-specification:&quot;Monospace Italic&quot;"><tspan x="8.991" y="9.041" style="text-align:end" text-anchor="end">@20@</tspan></text></g><g transform="translate(32.989 23.127) scale(1.1842)"><rect width="7.559" height="6.614" x="2.661" y="-9.734" fill="url(#aL)" ry="0" transform="rotate(90)"/><path fill="url(#aM)" d="M9.734 2.66 3.12 10.22h6.614z" clip-path="url(#f)"/><text xml:space="preserve" x="3.262" y="6.003" fill="url(#aN)" stroke-linejoin="bevel" stroke-width=".25" font-family="Monospace" font-size="3" font-style="italic" font-weight="400" style="-inkscape-font-specification:&quot;Monospace Italic&quot;" transform="matrix(.8444 0 0 .8444 1.108 .316)"><tspan x="3.262" y="6.003">@k21@</tspan></text><text xml:space="preserve" x="8.991" y="9.041" fill="url(#aO)" stroke-linejoin="bevel" stroke-width=".211" font-family="Monospace" font-size="2.533" font-style="italic" font-weight="400" style="-inkscape-font-specification:&quot;Monospace Italic&quot;"><tspan x="8.991" y="9.041" style="text-align:end" text-anchor="end">@21@</tspan></text></g><g transform="translate(41.573 23.127) scale(1.1842)"><rect width="7.559" height="6.614" x="2.661" y="-9.734" fill="url(#aP)" ry="0" transform="rotate(90)"/><path fill="url(#aQ)" d="M9.734 2.66 3.12 10.22h6.614z" clip-path="url(#f)"/><text xml:space="preserve" x="3.262" y="6.003" fill="url(#aR)" stroke-linejoin="bevel" stroke-width=".25" font-family="Monospace" font-size="3" font-style="italic" font-weight="400" style="-inkscape-font-specification:&quot;Monospace Italic&quot;" transform="matrix(.8444 0 0 .8444 1.108 .316)"><tspan x="3.262" y="6.003">@k22@</tspan></text><text xml:space="preserve" x="8.991" y="9.041" fill="url(#aS)" stroke-linejoin="bevel" stroke-width=".211" font-family="Monospace" font-size="2.533" font-style="italic" font-weight="400" style="-inkscape-font-specification:&quot;Monospace Italic&quot;"><tspan x="8.991" y="9.041" style="text-align:end" text-anchor="end">@22@</tspan></text></g><g transform="translate(50.158 23.127) scale(1.1842)"><rect width="7.559" height="6.614" x="2.661" y="-9.734" fill="url(#aT)" ry="0" transform="rotate(90)"/><path fill="url(#aU)" d="M9.734 2.66 3.12 10.22h6.614z" clip-path="url(#f)"/><text xml:space="preserve" x="3.262" y="6.003" fill="url(#aV)" stroke-linejoin="bevel" stroke-width=".25" font-family="Monospace" font-size="3" font-style="italic" font-weight="400" style="-inkscape-font-specification:&quot;Monospace Italic&quot;" transform="matrix(.8444 0 0 .8444 1.108 .316)"><tspan x="3.262" y="6.003">@k23@</tspan></text><text xml:space="preserve" x="8.991" y="9.041" fill="url(#aW)" stroke-linejoin="bevel" stroke-width=".211" font-family="Monospace" font-size="2.533" font-style="italic" font-weight="400" style="-inkscape-font-specification:&quot;Monospace Italic&quot;"><tspan x="8.991" y="9.041" style="text-align:end" text-anchor="end">@23@</tspan></text></g><g transform="translate(58.743 23.127) scale(1.1842)"><rect width="7.559" height="6.614" x="2.661" y="-9.734" fill="url(#aX)" ry="0" transform="rotate(90)"/><path fill="url(#aY)" d="M9.734 2.66 3.12 10.22h6.614z" clip-path="url(#f)"/><text xml:space="preserve" x="3.262" y="6.003" fill="url(#aZ)" stroke-linejoin="bevel" stroke-width=".25" font-family="Monospace" font-size="3" font-style="italic" font-weight="400" style="-inkscape-font-specification:&quot;Monospace Italic&quot;" transform="matrix(.8444 0 0 .8444 1.108 .316)"><tspan x="3.262" y="6.003">@k24@</tspan></text><text xml:space="preserve" x="8.991" y="9.041" fill="url(#ba)" stroke-linejoin="bevel" stroke-width=".211" font-family="Monospace" font-size="2.533" font-style="italic" font-weight="400" style="-inkscape-font-specification:&quot;Monospace Italic&quot;"><tspan x="8.991" y="9.041" style="text-align:end" text-anchor="end">@24@</tspan></text></g><g transform="translate(67.328 23.127) scale(1.1842)"><rect width="7.559" height="6.614" x="2.661" y="-9.734" fill="url(#bb)" ry="0" transform="rotate(90)"/><path fill="url(#bc)" d="M9.734 2.66 3.12 10.22h6.614z" clip-path="url(#f)"/><text xml:space="preserve" x="3.262" y="6.003" fill="url(#bd)" stroke-linejoin="bevel" stroke-width=".25" font-family="Monospace" font-size="3" font-style="italic" font-weight="400" style="-inkscape-font-specification:&quot;Monospace Italic&quot;" transform="matrix(.8444 0 0 .8444 1.108 .316)"><tspan x="3.262" y="6.003">@k25@</tspan></text><text xml:space="preserve" x="8.991" y="9.041" fill="url(#be)" stroke-linejoin="bevel" stroke-width=".211" font-family="Monospace" font-size="2.533" font-style="italic" font-weight="400" style="-inkscape-font-specification:&quot;Monospace Italic&quot;"><tspan x="8.991" y="9.041" style="text-align:end" text-anchor="end">@25@</tspan></text></g><path fill="url(#bf)" d="M19.513 42.456h59.342v7.887H19.513z" transform="translate(.816 -.506)"/><text xml:space="preserve" x="49.894" y="47.917" fill="#fff" stroke-linejoin="bevel" stroke-width=".25" font-family="Monospace" font-size="5.5" font-style="italic" font-weight="400" style="-inkscape-font-specification:&quot;Monospace Italic&quot;;text-align:end" text-anchor="end" transform="translate(.816 -.506)"><tspan x="49.894" y="47.917" style="text-align:center" text-anchor="middle">@key@</tspan></text></g></svg>